<?xml version="1.0" encoding="UTF-8"?>
<svg xmlns="http://www.w3.org/2000/svg" xmlns:xlink="http://www.w3.org/1999/xlink" width="600pt" height="374.999991pt" viewBox="0 0 600 374.999991" version="1.2">
<defs>
<clipPath id="clip1">
  <path d="M 112.5 0 L 487.5 0 L 487.5 375 L 112.5 375 Z M 112.5 0 "/>
</clipPath>
</defs>
<g id="surface1">
<g clip-path="url(#clip1)" clip-rule="nonzero">
<path style=" stroke:none;fill-rule:nonzero;fill:rgb(4.309082%,41.569519%,21.179199%);fill-opacity:1;" d="M 430.046875 101.898438 C 408.074219 124.691406 388.417969 145.269531 375.964844 158.304688 C 368.320312 166.363281 355.632812 166.785156 347.429688 159.289062 L 346.140625 158.136719 L 229.550781 278.378906 C 227.457031 280.546875 226.207031 283.152344 225.226562 285.820312 C 222.125 294.140625 216.5625 299.882812 208.835938 304.335938 C 201.25 308.671875 194.050781 313.679688 186.726562 318.601562 L 177.675781 313.152344 C 184.679688 301.699219 191.714844 290.273438 198.699219 278.789062 C 199.554688 277.382812 200.859375 276.296875 202.382812 275.625 C 212.453125 271.171875 220.542969 264.285156 228.097656 256.257812 C 247.585938 235.515625 335.597656 145.570312 335.597656 145.570312 C 327.011719 137.886719 326.484375 124.648438 334.425781 116.292969 C 350.390625 99.507812 375.496094 73.117188 388.097656 59.816406 C 392.402344 55.308594 399.550781 55.261719 403.886719 59.726562 C 411.445312 67.484375 422.722656 79.078125 430.050781 86.664062 C 434.179688 90.910156 434.152344 97.652344 430.050781 101.898438 Z M 399.519531 288.367188 C 391.640625 306.296875 369.167969 310.488281 355.488281 296.484375 C 341.398438 282.011719 327.421875 267.421875 313.386719 252.890625 C 305.917969 245.125 298.421875 237.363281 291.460938 230.183594 C 304.246094 216.914062 316.992188 203.699219 329.707031 190.488281 C 331.640625 192.390625 333.222656 193.886719 334.714844 195.4375 C 354.285156 215.742188 373.855469 236.015625 393.425781 256.316406 C 402.039062 265.28125 404.324219 277.382812 399.519531 288.367188 Z M 168.976562 111.292969 C 169.9375 111.269531 170.257812 112.105469 170.75 112.609375 C 180.351562 122.507812 189.964844 132.394531 199.496094 142.363281 C 200.929688 143.851562 202.132812 144.320312 204.246094 143.703125 C 213.230469 141.050781 222.285156 138.621094 231.335938 136.207031 C 232.871094 135.796875 233.601562 135.15625 234.003906 133.527344 C 236.394531 123.929688 238.902344 114.347656 241.472656 104.792969 C 241.910156 103.15625 241.660156 102.09375 240.457031 100.867188 C 230.75 90.945312 221.117188 80.957031 211.46875 70.984375 C 210.875 70.371094 210.3125 69.71875 209.5 68.8125 C 228.164062 64.375 245.148438 67.324219 259.695312 79.445312 C 279 95.535156 285.261719 116.441406 280.15625 140.875 C 279.90625 142.101562 279.824219 142.914062 280.867188 143.757812 C 281.953125 144.628906 282.890625 145.703125 283.875 146.699219 C 284.859375 147.695312 301.875 163.292969 303.046875 164.507812 L 263.699219 204.519531 C 263.183594 204.902344 262.796875 204.023438 262.210938 203.40625 C 256.121094 197.078125 250.035156 190.75 243.992188 184.386719 C 242.917969 183.253906 242.011719 182.898438 240.355469 183.378906 C 208.445312 192.683594 175.210938 172.449219 168.425781 139.753906 C 165.234375 123.882812 167.707031 114.015625 168.976562 111.292969 Z M 300 0 C 196.441406 0 112.5 83.941406 112.5 187.5 C 112.5 291.0625 196.441406 375 300 375 C 403.5625 375 487.5 291.0625 487.5 187.5 C 487.5 83.941406 403.5625 0 300 0 "/>
</g>
</g>
</svg>
