<?xml version="1.0" encoding="UTF-8"?>
<svg xmlns="http://www.w3.org/2000/svg" xmlns:xlink="http://www.w3.org/1999/xlink" width="224.87999pt" height="42pt" viewBox="0 0 224.87999 42" version="1.2">
<defs>
<clipPath id="clip1">
  <path d="M 2.554688 0 L 45 0 L 45 41 L 2.554688 41 Z M 2.554688 0 "/>
</clipPath>
<clipPath id="clip2">
  <path d="M 180 0 L 222.207031 0 L 222.207031 41 L 180 41 Z M 180 0 "/>
</clipPath>
</defs>
<g id="surface1">
<g clip-path="url(#clip1)" clip-rule="nonzero">
<path style=" stroke:none;fill-rule:nonzero;fill:rgb(0%,0%,0%);fill-opacity:1;" d="M 42.386719 13.539062 L 31.203125 11.882812 L 26.203125 1.570312 C 25.753906 0.632812 24.808594 0.0507812 23.738281 0.0507812 C 22.667969 0.0507812 21.722656 0.632812 21.273438 1.566406 L 16.269531 11.882812 L 5.09375 13.535156 C 4.054688 13.691406 3.203125 14.417969 2.867188 15.457031 C 2.554688 16.46875 2.835938 17.589844 3.570312 18.304688 L 11.660156 26.335938 L 9.753906 37.667969 C 9.574219 38.707031 10.003906 39.785156 10.851562 40.414062 C 11.320312 40.761719 11.878906 40.945312 12.464844 40.945312 C 12.902344 40.945312 13.34375 40.835938 13.742188 40.625 L 23.738281 35.269531 L 33.757812 40.632812 C 34.652344 41.101562 35.757812 41.039062 36.648438 40.40625 C 37.488281 39.773438 37.90625 38.695312 37.722656 37.675781 L 35.816406 26.335938 L 43.882812 18.328125 C 44.640625 17.601562 44.925781 16.472656 44.597656 15.421875 C 44.257812 14.40625 43.414062 13.6875 42.386719 13.539062 Z M 7.355469 16.917969 L 18.675781 15.242188 L 23.742188 4.800781 L 28.804688 15.242188 L 40.125 16.917969 L 31.9375 25.046875 L 33.867188 36.53125 L 23.742188 31.109375 L 13.617188 36.535156 L 15.546875 25.050781 Z M 7.355469 16.917969 "/>
</g>
<path style=" stroke:none;fill-rule:nonzero;fill:rgb(0%,0%,0%);fill-opacity:1;" d="M 86.84375 13.539062 L 75.664062 11.882812 L 70.664062 1.570312 C 70.214844 0.632812 69.269531 0.0507812 68.199219 0.0507812 C 67.128906 0.0507812 66.183594 0.632812 65.734375 1.566406 L 60.734375 11.882812 L 49.554688 13.539062 C 48.519531 13.6875 47.667969 14.414062 47.335938 15.4375 C 47.011719 16.453125 47.285156 17.582031 48.03125 18.304688 L 56.121094 26.335938 L 54.207031 37.691406 C 54.042969 38.738281 54.457031 39.773438 55.316406 40.421875 C 55.789062 40.761719 56.34375 40.945312 56.921875 40.945312 C 57.367188 40.945312 57.8125 40.832031 58.195312 40.625 L 68.195312 35.269531 L 78.210938 40.632812 C 79.109375 41.105469 80.230469 41.03125 81.101562 40.40625 C 81.941406 39.777344 82.363281 38.699219 82.183594 37.675781 L 80.273438 26.335938 L 88.351562 18.316406 C 89.109375 17.582031 89.386719 16.449219 89.0625 15.4375 C 88.738281 14.433594 87.867188 13.6875 86.84375 13.539062 Z M 51.8125 16.917969 L 63.132812 15.242188 L 68.199219 4.796875 L 73.265625 15.242188 L 84.582031 16.917969 L 76.390625 25.050781 L 78.320312 36.535156 L 68.195312 31.109375 L 58.070312 36.535156 L 60.003906 25.050781 Z M 51.8125 16.917969 "/>
<path style=" stroke:none;fill-rule:nonzero;fill:rgb(0%,0%,0%);fill-opacity:1;" d="M 131.761719 13.539062 L 120.585938 11.882812 L 115.585938 1.570312 C 115.132812 0.632812 114.1875 0.0507812 113.117188 0.0507812 C 112.046875 0.0507812 111.101562 0.632812 110.652344 1.566406 L 105.652344 11.882812 L 94.472656 13.539062 C 93.449219 13.6875 92.578125 14.433594 92.257812 15.433594 C 91.925781 16.457031 92.207031 17.59375 92.949219 18.304688 L 101.039062 26.335938 L 99.128906 37.679688 C 98.953125 38.726562 99.371094 39.773438 100.222656 40.410156 C 100.695312 40.761719 101.253906 40.945312 101.839844 40.945312 C 102.285156 40.945312 102.730469 40.832031 103.117188 40.625 L 113.117188 35.269531 L 123.117188 40.625 C 124.011719 41.105469 125.164062 41.03125 126.027344 40.402344 C 126.863281 39.769531 127.28125 38.691406 127.101562 37.675781 L 125.195312 26.335938 L 133.273438 18.316406 C 134.027344 17.582031 134.304688 16.453125 133.980469 15.433594 C 133.648438 14.417969 132.800781 13.691406 131.761719 13.539062 Z M 96.734375 16.917969 L 108.054688 15.242188 L 113.121094 4.796875 L 118.183594 15.242188 L 129.503906 16.917969 L 121.3125 25.050781 L 123.242188 36.53125 L 113.121094 31.109375 L 102.988281 36.535156 L 104.925781 25.050781 Z M 96.734375 16.917969 "/>
<path style=" stroke:none;fill-rule:nonzero;fill:rgb(0%,0%,0%);fill-opacity:1;" d="M 175.328125 13.539062 L 164.152344 11.882812 L 159.148438 1.5625 C 158.695312 0.628906 157.75 0.0507812 156.683594 0.0507812 C 155.617188 0.0507812 154.671875 0.632812 154.222656 1.566406 L 149.21875 11.882812 L 138.046875 13.535156 C 137.003906 13.6875 136.15625 14.417969 135.828125 15.433594 C 135.5 16.449219 135.773438 17.582031 136.511719 18.304688 L 144.605469 26.335938 L 142.691406 37.679688 C 142.519531 38.734375 142.9375 39.777344 143.789062 40.414062 C 144.261719 40.761719 144.820312 40.945312 145.40625 40.945312 C 145.847656 40.945312 146.289062 40.832031 146.683594 40.625 L 156.683594 35.269531 L 166.703125 40.636719 C 167.605469 41.105469 168.71875 41.03125 169.585938 40.40625 C 170.429688 39.769531 170.84375 38.726562 170.667969 37.675781 L 168.761719 26.339844 L 176.851562 18.308594 C 177.597656 17.574219 177.867188 16.445312 177.546875 15.453125 C 177.230469 14.4375 176.355469 13.6875 175.328125 13.539062 Z M 140.296875 16.921875 L 151.617188 15.242188 L 156.683594 4.796875 L 161.746094 15.242188 L 173.066406 16.917969 L 164.878906 25.046875 L 166.808594 36.535156 L 156.683594 31.109375 L 146.554688 36.535156 L 148.492188 25.050781 Z M 140.296875 16.921875 "/>
<g clip-path="url(#clip2)" clip-rule="nonzero">
<path style=" stroke:none;fill-rule:nonzero;fill:rgb(0%,0%,0%);fill-opacity:1;" d="M 222.011719 15.433594 C 221.6875 14.429688 220.820312 13.6875 219.792969 13.539062 L 208.617188 11.882812 L 203.613281 1.570312 C 203.164062 0.632812 202.21875 0.0507812 201.152344 0.0507812 C 200.085938 0.0507812 199.140625 0.628906 198.683594 1.566406 L 193.6875 11.882812 L 182.503906 13.535156 C 181.46875 13.6875 180.617188 14.414062 180.285156 15.433594 C 179.957031 16.449219 180.234375 17.582031 180.980469 18.304688 L 189.070312 26.335938 L 187.160156 37.679688 C 186.984375 38.734375 187.402344 39.777344 188.257812 40.414062 C 188.730469 40.761719 189.289062 40.945312 189.871094 40.945312 C 190.316406 40.945312 190.757812 40.832031 191.144531 40.625 L 201.144531 35.269531 L 211.164062 40.632812 C 212.0625 41.101562 213.175781 41.039062 214.050781 40.40625 C 214.886719 39.777344 215.3125 38.703125 215.132812 37.675781 L 213.226562 26.335938 L 221.289062 18.328125 C 222.050781 17.601562 222.335938 16.476562 222.011719 15.433594 Z M 184.761719 16.917969 L 196.085938 15.242188 L 201.148438 4.800781 L 206.210938 15.242188 L 217.53125 16.917969 L 209.34375 25.050781 L 211.273438 36.53125 L 201.148438 31.109375 L 191.019531 36.53125 L 192.953125 25.050781 Z M 184.761719 16.917969 "/>
</g>
</g>
</svg>
